<svg version="1.1" xmlns="http://www.w3.org/2000/svg" xmlns:xlink="http://www.w3.org/1999/xlink" viewBox="0 0 226 226"><defs><radialGradient cx="116.87164" cy="106.44196" r="106.44797" gradientUnits="userSpaceOnUse" id="color-1"><stop offset="0" stop-color="#f869a3"/><stop offset="0.223" stop-color="#fc74ab"/><stop offset="0.443" stop-color="#f568a1"/><stop offset="0.662" stop-color="#e85491"/><stop offset="0.879" stop-color="#d5397a"/><stop offset="1" stop-color="#c9266b"/></radialGradient><radialGradient cx="113" cy="129.50271" r="55.05925" gradientUnits="userSpaceOnUse" id="color-2"><stop offset="0" stop-color="#ffeded"/><stop offset="0.863" stop-color="#ffebef"/></radialGradient><linearGradient x1="113" y1="13.76717" x2="113" y2="51.40088" gradientUnits="userSpaceOnUse" id="color-3"><stop offset="0.212" stop-color="#f2d3d3"/><stop offset="0.324" stop-color="#e4c3c5"/><stop offset="0.612" stop-color="#c5a0a5"/><stop offset="0.848" stop-color="#b28a91"/><stop offset="1" stop-color="#ab828a"/></linearGradient><radialGradient cx="113" cy="45.38362" r="58.44454" gradientUnits="userSpaceOnUse" id="color-4"><stop offset="0" stop-color="#ffeded"/><stop offset="0.863" stop-color="#ffebef"/></radialGradient></defs><g fill="none" fill-rule="nonzero" stroke="none" stroke-width="1" stroke-linecap="butt" stroke-linejoin="miter" stroke-miterlimit="10" stroke-dasharray="" stroke-dashoffset="0" font-family="none" font-weight="none" font-size="none" text-anchor="none" style="mix-blend-mode: normal"><path d="M0,226v-226h226v226z" fill="none"/><g><path d="M157.35721,40.40692l-44.35721,-11.89325l-44.35721,11.89796c-8.74808,2.34475 -16.40854,7.65575 -21.67246,15.02429l-18.80038,24.27617c0,0 9.44021,21.41821 26.94108,27.47313l6.67171,-6.67171c4.38346,12.28404 11.32354,28.72554 5.92779,51.54213c-2.13758,9.03058 -12.30758,29.4365 -12.60421,43.10479c0,0 18.40958,10.97042 52.97346,11.94504l2.18937,-1.22417l5.16975,0.02825l2.46717,1.19592c34.56387,-0.97463 52.97346,-11.94504 52.97346,-11.94504c-0.29192,-13.66829 -10.46662,-34.07421 -12.60421,-43.10479c-5.39575,-22.81187 1.85508,-39.10271 5.92779,-51.54212l6.67171,6.67171c17.3455,-5.90425 27.01642,-27.09175 27.01642,-27.09175l-18.87571,-24.65754c-5.2545,-7.36854 -12.91496,-12.67954 -21.65833,-15.029z" fill="url(#color-1)"/><path d="M117.91079,207.09604v-155.30437h-9.82629v155.30438c1.61967,0.04708 3.22992,0.11771 4.9155,0.11771c1.68558,0 3.29583,-0.07063 4.91079,-0.11771z" fill="url(#color-2)"/><path d="M131.39546,25.43442c-4.50588,-4.24221 -18.39546,-3.87967 -18.39546,-3.87967c0,0 -13.88958,-0.36254 -18.39546,3.87967l-3.51713,5.05204l0.72038,19.21l11.77554,2.09521h9.41667h9.41667l11.77554,-2.09992l0.72037,-19.21z" fill="url(#color-3)"/><path d="M98.8185,67.65875v0c-6.39392,0 -11.68138,-11.15404 -14.36042,-20.79671c-1.97279,-7.10487 2.58017,-11.43183 2.58017,-11.43183c0,0 20.16108,12.99971 25.96175,16.36146c0,0 -5.68296,16.32379 -14.1815,15.86708z" fill="#66122e" opacity="0.19"/><path d="M127.1815,67.65875v0c6.39392,0 11.68138,-11.15404 14.36042,-20.79671c1.97279,-7.10487 -2.60842,-11.38946 -2.60842,-11.38946c0,0 -20.13283,12.95733 -25.9335,16.31908c0,0 5.83362,15.86708 14.1815,15.86708z" fill="#66122e" opacity="0.19"/><path d="M103.4515,63.32708l9.5485,-11.53542c0,0 -14.43104,-9.944 -18.48963,-19.59608c-1.30421,-3.1075 0.08946,-6.76588 0.08946,-6.76588c0,0 -6.85062,6.26208 -8.62567,12.70779c-1.75621,6.37979 2.034,16.68633 9.12475,25.29317c2.15171,2.60842 6.20088,2.49542 8.35258,-0.10358zM122.5485,63.32708l-9.5485,-11.53542c0,0 14.43104,-9.944 18.48962,-19.59608c1.30421,-3.1075 -0.08946,-6.76588 -0.08946,-6.76588c0,0 6.85062,6.26208 8.62567,12.70779c1.75621,6.37979 -2.034,16.68633 -9.12475,25.29317c-2.15171,2.60842 -6.20088,2.49542 -8.35258,-0.10358z" fill="url(#color-4)"/><circle cx="24" cy="17.304" transform="scale(4.70833,4.70833)" r="0.514" fill="#c9266b"/><circle cx="24" cy="22.685" transform="scale(4.70833,4.70833)" r="0.514" fill="#c9266b"/><circle cx="24" cy="28.065" transform="scale(4.70833,4.70833)" r="0.514" fill="#c9266b"/><circle cx="24" cy="33.446" transform="scale(4.70833,4.70833)" r="0.514" fill="#c9266b"/><circle cx="24" cy="38.826" transform="scale(4.70833,4.70833)" r="0.514" fill="#c9266b"/></g></g></svg>