<svg version="1.1" xmlns="http://www.w3.org/2000/svg" xmlns:xlink="http://www.w3.org/1999/xlink" viewBox="0 0 226 226"><defs><linearGradient x1="137.71875" y1="30.12863" x2="137.71875" y2="184.46897" gradientUnits="userSpaceOnUse" id="color-1"><stop offset="0" stop-color="#007194"/><stop offset="1" stop-color="#004faf"/></linearGradient><linearGradient x1="143.01563" y1="30.12863" x2="143.01563" y2="184.46897" gradientUnits="userSpaceOnUse" id="color-2"><stop offset="0" stop-color="#007194"/><stop offset="1" stop-color="#004faf"/></linearGradient><linearGradient x1="68.85938" y1="30.12863" x2="68.85938" y2="184.46897" gradientUnits="userSpaceOnUse" id="color-3"><stop offset="0" stop-color="#007194"/><stop offset="1" stop-color="#004faf"/></linearGradient><linearGradient x1="111.23438" y1="30.12863" x2="111.23438" y2="184.46897" gradientUnits="userSpaceOnUse" id="color-4"><stop offset="0" stop-color="#007194"/><stop offset="1" stop-color="#004faf"/></linearGradient><linearGradient x1="135.95313" y1="101.30097" x2="135.95313" y2="122.64031" gradientUnits="userSpaceOnUse" id="color-5"><stop offset="0" stop-color="#05c3ff"/><stop offset="1" stop-color="#2084ff"/></linearGradient></defs><g fill="none" fill-rule="nonzero" stroke="none" stroke-width="1" stroke-linecap="butt" stroke-linejoin="miter" stroke-miterlimit="10" stroke-dasharray="" stroke-dashoffset="0" font-family="none" font-weight="none" font-size="none" text-anchor="none" style="mix-blend-mode: normal"><path d="M0,226v-226h226v226z" fill="none"/><g id="original-icon"><rect x="33" y="25" transform="scale(3.53125,3.53125)" width="12" height="2" fill="url(#color-1)"/><rect x="33" y="21" transform="scale(3.53125,3.53125)" width="15" height="2" fill="url(#color-2)"/><path d="M98.875,128.89063c0,-9.53438 -4.59063,-18.3625 -12.35937,-24.0125c1.05938,-2.47187 1.76563,-4.94375 1.76563,-7.76875v-7.0625c0,-10.59375 -8.82812,-19.42187 -19.42187,-19.42187c-10.59375,0 -19.42187,8.82813 -19.42187,19.42188v7.0625c0,2.825 0.70625,5.29688 1.76563,7.76875c-7.76875,5.65 -12.35937,14.47812 -12.35937,24.0125v8.82813h60.03125zM56.5,90.04688c0,-6.70937 5.65,-12.35937 12.35938,-12.35937c6.70937,0 12.35938,5.65 12.35938,12.35938v7.0625c0,6.70937 -5.65,12.35938 -12.35937,12.35938c-6.70937,0 -12.35937,-5.65 -12.35937,-12.35937zM91.8125,130.65625h-45.90625v-1.76562c0,-7.41563 3.53125,-13.77187 9.18125,-18.3625c3.53125,3.53125 8.475,6.00312 13.77188,6.00312c5.29688,0 10.24062,-2.11875 13.77187,-6.00312c5.65,4.2375 9.18125,10.94687 9.18125,18.3625z" fill="url(#color-3)"/><path d="M201.28125,165.96875c0,-5.29687 -3.17812,-10.24062 -8.12187,-12.7125c1.76563,-5.29687 0.70625,-10.94688 -3.17812,-14.83125c-0.70625,-0.70625 -1.76562,-1.4125 -2.825,-2.11875v-69.2125c0,-9.8875 -7.76875,-17.65625 -17.65625,-17.65625h-38.49063c-1.05937,0 -2.47188,-0.70625 -3.17812,-1.76562l-6.35625,-10.94687c-1.76563,-2.825 -5.29688,-4.94375 -8.82813,-4.94375h-77.33437c-7.76875,0 -14.125,6.35625 -14.125,14.125v120.0625c0,9.8875 7.76875,17.65625 17.65625,17.65625h92.16563c0,3.53125 1.4125,7.0625 4.2375,9.8875c3.88438,3.88438 9.8875,5.29688 14.83125,3.17812c2.47188,4.94375 7.41563,8.12187 12.7125,8.12187c5.29688,0 10.24062,-3.17812 12.7125,-8.12187c5.29688,1.76563 10.94688,0.70625 14.83125,-3.17812c3.88438,-3.88438 5.29688,-9.8875 3.17812,-14.83125c4.59062,-2.47187 7.76875,-7.41562 7.76875,-12.7125zM115.47188,40.60938l5.29688,8.82813h-28.60313c-1.05938,0 -2.47187,-0.70625 -3.17812,-1.76562l-4.94375,-8.82812h28.60312c1.05938,0 2.11875,0.70625 2.825,1.76563zM28.25,45.90625c0,-3.88437 3.17813,-7.0625 7.0625,-7.0625h38.49062c1.05938,0 2.47187,0.70625 3.17812,1.76563l6.35625,10.94687c1.76563,3.17813 5.29688,5.29688 9.18125,5.29688h76.98125c6.00313,0 10.59375,4.59063 10.59375,10.59375v67.44688c-1.76562,0 -3.17812,0.35313 -4.94375,0.70625c-2.47188,-5.29688 -7.41563,-8.475 -12.7125,-8.475c-5.29687,0 -10.24062,3.17812 -12.7125,8.12187c-5.29687,-1.76562 -10.94688,-0.70625 -14.83125,3.17812c-3.88438,3.88438 -5.29687,9.8875 -3.17812,14.83125c-3.88438,1.76563 -6.35625,5.29688 -7.41563,9.18125h-43.43437c-1.4125,-6.00313 -7.0625,-10.59375 -13.77187,-10.59375c-6.70937,0 -12.00625,4.59062 -13.77188,10.59375h-14.47812c-6.00312,0 -10.59375,-4.59062 -10.59375,-10.59375zM28.25,165.96875v0c2.825,2.11875 6.70938,3.53125 10.59375,3.53125h21.1875v-3.53125c0,-3.88438 3.17812,-7.0625 7.0625,-7.0625c3.88438,0 7.0625,3.17812 7.0625,7.0625v3.53125h49.79063c0.70625,2.825 2.47188,5.29688 4.59062,7.0625h-89.69375c-6.00312,0 -10.59375,-4.59062 -10.59375,-10.59375zM190.33438,172.325c-3.53125,1.76563 -4.94375,5.29688 -3.53125,8.82813c1.05937,2.47188 0.35313,5.65 -1.76562,7.41563c-1.76562,1.76563 -4.94375,2.47188 -7.41563,1.76563c-3.53125,-1.4125 -7.0625,0.35313 -8.82812,3.53125c-1.05937,2.47188 -3.53125,3.88438 -6.35625,3.88438c-2.825,0 -5.29687,-1.4125 -6.35625,-3.88438c-1.05937,-2.47188 -3.88438,-4.2375 -6.35625,-4.2375c-0.70625,0 -1.4125,0 -2.47188,0.35313c-2.47188,1.05937 -5.65,0.35313 -7.41563,-1.76562c-1.76562,-1.76562 -2.47188,-4.94375 -1.76562,-7.41563c1.4125,-3.53125 -0.35313,-7.0625 -3.53125,-8.82812c-2.47188,-1.05937 -3.88438,-3.53125 -3.88438,-6.35625c0,-2.825 1.4125,-5.29687 3.88438,-6.35625c3.53125,-1.76562 4.94375,-5.29687 3.53125,-8.82812c-1.05937,-2.47188 -0.35313,-5.65 1.76563,-7.41563c1.76563,-1.76562 4.94375,-2.47188 7.41563,-1.76562c3.53125,1.4125 7.0625,-0.35313 8.82813,-3.53125c1.05937,-2.47188 3.53125,-3.88438 6.35625,-3.88438c2.825,0 5.29688,1.4125 6.35625,3.88438c1.76563,3.53125 5.29688,4.94375 8.82813,3.53125c2.47188,-1.05937 5.65,-0.35313 7.41563,1.76563c1.76563,1.76563 2.47188,4.94375 1.76563,7.41563c-1.4125,3.53125 0.35313,7.0625 3.53125,8.82813c2.47188,1.05937 3.88438,3.53125 3.88438,6.35625c0,2.825 -1.4125,5.65 -3.88438,6.70937z" fill="url(#color-4)"/><path d="M152.19688,120.0625h-32.4875c-1.76562,0 -3.17812,-1.4125 -3.17812,-3.17812v-11.3c0,-1.76562 1.4125,-3.17812 3.17812,-3.17812h32.4875c1.76563,0 3.17812,1.4125 3.17812,3.17812v11.3c0,1.76563 -1.4125,3.17812 -3.17813,3.17812z" fill="url(#color-5)"/></g></g></svg>