<svg version="1.1" xmlns="http://www.w3.org/2000/svg" xmlns:xlink="http://www.w3.org/1999/xlink" viewBox="0 0 226 226"><g fill="none" fill-rule="nonzero" stroke="none" stroke-width="1" stroke-linecap="butt" stroke-linejoin="miter" stroke-miterlimit="10" stroke-dasharray="" stroke-dashoffset="0" font-family="none" font-weight="none" font-size="none" text-anchor="none" style="mix-blend-mode: normal"><path d="M0,226v-226h226v226z" fill="none"/><g><path d="M60.87875,17.44438h101.55875c5.85077,0 10.59375,4.74298 10.59375,10.59375v169.5c0,5.85077 -4.74298,10.59375 -10.59375,10.59375h-134.1875c-5.85077,0 -10.59375,-4.74298 -10.59375,-10.59375v-136.87125c0.00247,-2.80869 1.12022,-5.50144 3.1075,-7.48625l32.62875,-32.62875c1.98481,-1.98728 4.67756,-3.10503 7.48625,-3.1075z" fill="#ffffff"/><path d="M17.65625,208.34375l-0.52969,-33.40563l153.57406,-153.53875l2.33062,81.00688l-105.9375,105.9375zM17.12656,138.24844l120.80406,-120.80406l20.30469,0.88281l-140.57906,140.57906zM17.12656,117.06094l99.40469,-99.40469h10.59375l-109.99844,109.99844z" fill="#ffffff"/><path d="M139.48438,45.90625l4.37875,7.98062l7.98063,4.37875l-7.98063,4.37875l-4.37875,7.98063l-4.37875,-7.98063l-7.98063,-4.37875l7.98063,-4.37875zM86.23313,38.84375l3.00156,5.50875l5.54406,3.03688l-5.54406,3.00156l-3.00156,5.54406l-3.03688,-5.54406l-5.50875,-3.00156l5.50875,-3.03688zM37.60781,148.3125l2.04812,3.74313l3.77844,2.08344l-3.77844,2.04812l-2.04812,3.77844l-2.08344,-3.77844l-3.74312,-2.04812l3.74312,-2.08344z" fill="#ffffff"/><path d="M60.03125,17.65625v42.375h-42.375z" fill="#bbdef9"/><path d="M52.96875,81.21875h155.375v77.6875h-155.375z" fill="#1b81d0"/><path d="M31.78125,183.625c-1.95026,0 -3.53125,1.58099 -3.53125,3.53125v7.0625c0,1.95026 1.58099,3.53125 3.53125,3.53125c1.95026,0 3.53125,-1.58099 3.53125,-3.53125v-7.0625c0,-1.95026 -1.58099,-3.53125 -3.53125,-3.53125zM49.4375,183.625c-1.95026,0 -3.53125,1.58099 -3.53125,3.53125v7.0625c0,1.95026 1.58099,3.53125 3.53125,3.53125c1.95026,0 3.53125,-1.58099 3.53125,-3.53125v-7.0625c0,-1.95026 -1.58099,-3.53125 -3.53125,-3.53125zM67.09375,197.75c1.95026,0 3.53125,-1.58099 3.53125,-3.53125v-7.0625c0,-1.95026 -1.58099,-3.53125 -3.53125,-3.53125c-1.95026,0 -3.53125,1.58099 -3.53125,3.53125v7.0625c0,1.95026 1.58099,3.53125 3.53125,3.53125zM84.75,197.75c1.95026,0 3.53125,-1.58099 3.53125,-3.53125v-7.0625c0,-1.95026 -1.58099,-3.53125 -3.53125,-3.53125c-1.95026,0 -3.53125,1.58099 -3.53125,3.53125v7.0625c0,1.95026 1.58099,3.53125 3.53125,3.53125zM102.40625,197.75c1.95026,0 3.53125,-1.58099 3.53125,-3.53125v-7.0625c0,-1.95026 -1.58099,-3.53125 -3.53125,-3.53125c-1.95026,0 -3.53125,1.58099 -3.53125,3.53125v7.0625c0,1.95026 1.58099,3.53125 3.53125,3.53125zM120.0625,197.75c1.95026,0 3.53125,-1.58099 3.53125,-3.53125v-7.0625c0,-1.95026 -1.58099,-3.53125 -3.53125,-3.53125c-1.95026,0 -3.53125,1.58099 -3.53125,3.53125v7.0625c0,1.95026 1.58099,3.53125 3.53125,3.53125zM137.71875,197.75c1.95026,0 3.53125,-1.58099 3.53125,-3.53125v-7.0625c0,-1.95026 -1.58099,-3.53125 -3.53125,-3.53125c-1.95026,0 -3.53125,1.58099 -3.53125,3.53125v7.0625c0,1.95026 1.58099,3.53125 3.53125,3.53125zM155.375,197.75c1.95026,0 3.53125,-1.58099 3.53125,-3.53125v-7.0625c0,-1.95026 -1.58099,-3.53125 -3.53125,-3.53125c-1.95026,0 -3.53125,1.58099 -3.53125,3.53125v7.0625c0,1.95026 1.58099,3.53125 3.53125,3.53125z" fill="#0864a1"/><path d="M204.8125,77.6875h-28.25v-52.96875c0,-5.85077 -4.74298,-10.59375 -10.59375,-10.59375h-103.60687c-4.68593,-0.00837 -9.18299,1.84635 -12.50062,5.15563l-30.58063,30.58063c-3.30927,3.31764 -5.16399,7.8147 -5.15563,12.50063v138.91938c0,5.85077 4.74298,10.59375 10.59375,10.59375h141.25c5.85077,0 10.59375,-4.74298 10.59375,-10.59375v-38.84375h28.25c3.90051,0 7.0625,-3.16199 7.0625,-7.0625v-70.625c0,-3.90051 -3.16199,-7.0625 -7.0625,-7.0625zM54.87563,24.295c0.49552,-0.50016 1.03967,-0.94967 1.62438,-1.34187v30.01563c0,1.95026 -1.58099,3.53125 -3.53125,3.53125h-30.01562c0.3922,-0.5847 0.84172,-1.12885 1.34187,-1.62438zM169.5,201.28125c0,1.95026 -1.58099,3.53125 -3.53125,3.53125h-141.25c-1.95026,0 -3.53125,-1.58099 -3.53125,-3.53125v-137.71875h31.78125c5.85077,0 10.59375,-4.74298 10.59375,-10.59375v-31.78125h102.40625c1.95026,0 3.53125,1.58099 3.53125,3.53125v52.96875h-113c-3.90051,0 -7.0625,3.16199 -7.0625,7.0625v70.625c0,3.90051 3.16199,7.0625 7.0625,7.0625h113zM204.8125,155.375h-148.3125v-70.625h148.3125z" fill="#0864a1"/><path d="M158.90625,141.25c1.95026,0 3.53125,-1.58099 3.53125,-3.53125v-10.59375h10.59375c1.95026,0 3.53125,-1.58099 3.53125,-3.53125c0,-1.95026 -1.58099,-3.53125 -3.53125,-3.53125h-10.59375v-14.125h14.125c1.95026,0 3.53125,-1.58099 3.53125,-3.53125c0,-1.95026 -1.58099,-3.53125 -3.53125,-3.53125h-17.65625c-1.95026,0 -3.53125,1.58099 -3.53125,3.53125v35.3125c0,1.95026 1.58099,3.53125 3.53125,3.53125zM88.28125,141.25c1.95026,0 3.53125,-1.58099 3.53125,-3.53125v-10.59375h10.59375c5.85077,0 10.59375,-4.74298 10.59375,-10.59375v-7.0625c0,-5.85077 -4.74298,-10.59375 -10.59375,-10.59375h-14.125c-1.95026,0 -3.53125,1.58099 -3.53125,3.53125v35.3125c0,1.95026 1.58099,3.53125 3.53125,3.53125zM91.8125,105.9375h10.59375c1.95026,0 3.53125,1.58099 3.53125,3.53125v7.0625c0,1.95026 -1.58099,3.53125 -3.53125,3.53125h-10.59375zM123.59375,141.25h10.59375c7.80102,0 14.125,-6.32398 14.125,-14.125v-14.125c0,-7.80102 -6.32398,-14.125 -14.125,-14.125h-10.59375c-1.95026,0 -3.53125,1.58099 -3.53125,3.53125v35.3125c0,1.95026 1.58099,3.53125 3.53125,3.53125zM127.125,105.9375h7.0625c3.90051,0 7.0625,3.16199 7.0625,7.0625v14.125c0,3.90051 -3.16199,7.0625 -7.0625,7.0625h-7.0625z" fill="#ffffff"/></g></g></svg>