<svg version="1.1" xmlns="http://www.w3.org/2000/svg" xmlns:xlink="http://www.w3.org/1999/xlink" viewBox="0 0 226 226"><g fill="none" fill-rule="nonzero" stroke="none" stroke-width="1" stroke-linecap="butt" stroke-linejoin="miter" stroke-miterlimit="10" stroke-dasharray="" stroke-dashoffset="0" font-family="none" font-weight="none" font-size="none" text-anchor="none" style="mix-blend-mode: normal"><path d="M0,226v-226h226v226z" fill="none"/><g fill="#0864a1"><path d="M0,18.08v189.84h226v-189.84zM22.6,40.68h180.8v144.64h-180.8zM149.16,67.8c-9.97578,0 -18.08,8.10422 -18.08,18.08c0,9.97578 8.10422,18.08 18.08,18.08c9.97578,0 18.08,-8.10422 18.08,-18.08c0,-9.97578 -8.10422,-18.08 -18.08,-18.08zM76.98125,72.32c-1.37719,-0.03531 -2.63078,0.49438 -3.53125,1.55375l-41.81,48.8725v53.53375h162.72v-44.635l-34.465,-13.8425c-1.18297,-0.47672 -2.50719,-0.42375 -3.6725,0.14125l-32.77,16.385l-42.94,-60.1725c-0.81219,-1.13 -2.13641,-1.76562 -3.53125,-1.83625z"/></g></g></svg>