<svg version="1.1" xmlns="http://www.w3.org/2000/svg" xmlns:xlink="http://www.w3.org/1999/xlink" viewBox="0 0 226 226"><defs><linearGradient x1="113" y1="28.25" x2="113" y2="199.55094" gradientUnits="userSpaceOnUse" id="color-1"><stop offset="0" stop-color="#0a69ad"/><stop offset="1" stop-color="#0864a1"/></linearGradient><linearGradient x1="70.625" y1="28.25" x2="70.625" y2="199.55094" gradientUnits="userSpaceOnUse" id="color-2"><stop offset="0" stop-color="#0a69ad"/><stop offset="1" stop-color="#0864a1"/></linearGradient><linearGradient x1="77.6875" y1="28.25" x2="77.6875" y2="199.55094" gradientUnits="userSpaceOnUse" id="color-3"><stop offset="0" stop-color="#0a69ad"/><stop offset="1" stop-color="#0864a1"/></linearGradient><linearGradient x1="183.625" y1="28.25" x2="183.625" y2="199.55094" gradientUnits="userSpaceOnUse" id="color-4"><stop offset="0" stop-color="#0a69ad"/><stop offset="1" stop-color="#0864a1"/></linearGradient><linearGradient x1="165.96875" y1="28.25" x2="165.96875" y2="199.55094" gradientUnits="userSpaceOnUse" id="color-5"><stop offset="0" stop-color="#0a69ad"/><stop offset="1" stop-color="#0864a1"/></linearGradient><linearGradient x1="35.3125" y1="108.14453" x2="35.3125" y2="154.08609" gradientUnits="userSpaceOnUse" id="color-6"><stop offset="0" stop-color="#34a3f3"/><stop offset="1" stop-color="#25a1f4"/></linearGradient></defs><g fill="none" fill-rule="nonzero" stroke="none" stroke-width="1" stroke-linecap="butt" stroke-linejoin="miter" stroke-miterlimit="10" stroke-dasharray="" stroke-dashoffset="0" font-family="none" font-weight="none" font-size="none" text-anchor="none" style="mix-blend-mode: normal"><path d="M0,226v-226h226v226z" fill="none"/><g><path d="M134.1875,194.21875c-7.78994,0 -14.125,-6.33506 -14.125,-14.125v-49.4375h14.18856l-18.39781,-26.76687c-1.28184,-1.88922 -4.42113,-1.88922 -5.70297,0l-18.35897,27.00347l14.14619,-0.23659v49.4375c0,7.78994 -6.33506,14.125 -14.125,14.125c-7.78994,0 -14.125,-6.33506 -14.125,-14.125v-14.125h-31.78125c-19.47131,0 -35.3125,-15.84119 -35.3125,-35.3125c0,-17.80809 13.24925,-32.57931 30.40759,-34.9735c-1.43369,-4.67184 -2.15759,-9.52025 -2.15759,-14.464c0,-27.26125 22.17625,-49.4375 49.4375,-49.4375c20.59072,0 38.81903,12.769 46.08634,31.65766c6.0455,-4.50941 13.33047,-6.93891 21.00741,-6.93891c19.47131,0 35.3125,15.84119 35.3125,35.3125c0,3.7855 -0.60031,7.48272 -1.78681,11.04222c15.00781,2.53191 26.50556,15.65403 26.50556,31.33278c0,17.52559 -14.25566,31.78125 -31.78125,31.78125h-35.3125v14.125c0,7.78994 -6.33506,14.125 -14.125,14.125zM127.125,137.71875v42.375c0,3.89497 3.16753,7.0625 7.0625,7.0625c3.89497,0 7.0625,-3.16753 7.0625,-7.0625v-21.1875h42.375c13.62709,0 24.71875,-11.09166 24.71875,-24.71875c0,-13.53881 -11.0175,-24.62341 -24.55984,-24.70816l-5.66412,-0.03884l2.52837,-5.07088c1.97397,-3.95853 2.97684,-8.18897 2.97684,-12.55712c0,-15.57634 -12.67366,-28.25 -28.25,-28.25c-7.65575,0 -14.82772,3.02628 -20.20228,8.52444l-4.36463,4.46703l-1.57494,-6.0455c-4.86253,-18.64147 -21.70306,-31.66472 -40.95191,-31.66472c-23.36628,0 -42.375,19.00872 -42.375,42.375c0,5.63587 1.09822,11.11638 3.25934,16.29319l2.04106,4.89431h-5.30041c-15.57634,0 -28.25,12.67366 -28.25,28.25c0,15.57634 12.67366,28.25 28.25,28.25h38.84375v21.1875c0,3.89497 3.16753,7.0625 7.0625,7.0625c3.89497,0 7.0625,-3.16753 7.0625,-7.0625v-42.375h-7.12606c-2.60959,0 -4.98259,-1.41956 -6.19734,-3.71134c-1.19356,-2.25647 -1.04525,-4.96847 0.39197,-7.08369l18.35897,-27.007c1.95278,-2.86384 5.20153,-4.57297 8.69747,-4.57297c3.49594,0 6.74469,1.70913 8.69394,4.57297l18.35897,27.00347c1.43722,2.11875 1.58553,4.83075 0.39197,7.08722c-1.21122,2.29178 -3.58422,3.71134 -6.19381,3.71134z" fill="url(#color-1)"/><path d="M60.03125,81.21875h-7.0625c0,-19.47131 15.84119,-35.3125 35.3125,-35.3125v7.0625c-15.57634,0 -28.25,12.67366 -28.25,28.25z" fill="url(#color-2)"/><path d="M74.15625,81.21875h-7.0625c0,-11.68491 9.50259,-21.1875 21.1875,-21.1875v7.0625c-7.78994,0 -14.125,6.33506 -14.125,14.125z" fill="url(#color-3)"/><path d="M183.625,151.84375c-9.73566,0 -17.65625,-7.92059 -17.65625,-17.65625c0,-9.73566 7.92059,-17.65625 17.65625,-17.65625c9.73566,0 17.65625,7.92059 17.65625,17.65625c0,9.73566 -7.92059,17.65625 -17.65625,17.65625zM183.625,123.59375c-5.84069,0 -10.59375,4.75306 -10.59375,10.59375c0,5.84069 4.75306,10.59375 10.59375,10.59375c5.84069,0 10.59375,-4.75306 10.59375,-10.59375c0,-5.84069 -4.75306,-10.59375 -10.59375,-10.59375z" fill="url(#color-4)"/><path d="M176.5625,91.8125h-7.0625c0,-7.78994 -6.33506,-14.125 -14.125,-14.125v-7.0625c11.68491,0 21.1875,9.50259 21.1875,21.1875z" fill="url(#color-5)"/><path d="M45.90625,151.84375c-11.70256,0 -21.1875,-9.48494 -21.1875,-21.1875c0,-11.70256 9.48494,-21.1875 21.1875,-21.1875z" fill="url(#color-6)"/></g></g></svg>